HIERARCHY
ROOT Hips
{
	OFFSET 0.000000 0.000000 0.000000
	CHANNELS 6 Xposition Yposition Zposition Xrotation Yrotation Zrotation
	JOINT LeftUpLeg_virtual
	{
		OFFSET 0.000000 0.000000 0.000000
		CHANNELS 3 Xrotation Yrotation Zrotation
		JOINT LeftUpLeg
		{
			OFFSET 11.394100 -6.187798 -0.413800
			CHANNELS 3 Xrotation Yrotation Zrotation
			JOINT LeftLeg
			{
				OFFSET 0.430247 -32.302673 3.732800
				CHANNELS 3 Xrotation Yrotation Zrotation
				JOINT LeftFoot
				{
					OFFSET -0.430247 -48.264931 -6.423300
					CHANNELS 3 Xrotation Yrotation Zrotation
					JOINT LeftToeBase
					{
						OFFSET 4.230900 -16.068199 23.438400
						CHANNELS 3 Xrotation Yrotation Zrotation
						JOINT LeftToe_End
						{
							OFFSET 4.510700 0.695400 19.974600
							CHANNELS 3 Xrotation Yrotation Zrotation
							End Site
							{
								OFFSET 0 0 0
							}
						}
					}
				}
			}
		}
	}
	JOINT RightUpLeg_virtual
	{
		OFFSET 0.000000 0.000000 0.000000
		CHANNELS 3 Xrotation Yrotation Zrotation
		JOINT RightUpLeg
		{
			OFFSET -11.333700 -6.187798 -0.413800
			CHANNELS 3 Xrotation Yrotation Zrotation
			JOINT RightLeg
			{
				OFFSET -0.430392 -32.302628 3.733000
				CHANNELS 3 Xrotation Yrotation Zrotation
				JOINT RightFoot
				{
					OFFSET 0.430392 -48.264973 -6.423500
					CHANNELS 3 Xrotation Yrotation Zrotation
					JOINT RightToeBase
					{
						OFFSET -4.230900 -16.068199 23.438400
						CHANNELS 3 Xrotation Yrotation Zrotation
						JOINT RightToe_End
						{
							OFFSET -4.510700 0.695400 19.974600
							CHANNELS 3 Xrotation Yrotation Zrotation
							End Site
							{
								OFFSET 0 0 0
							}
						}
					}
				}
			}
		}
	}
	JOINT Spine_virtual
	{
		OFFSET 0.000000 0.000000 0.000000
		CHANNELS 3 Xrotation Yrotation Zrotation
		JOINT Spine
		{
			OFFSET -0.002400 12.777504 0.315300
			CHANNELS 3 Xrotation Yrotation Zrotation
			JOINT Spine1
			{
				OFFSET -0.002067 5.816869 0.032633
				CHANNELS 3 Xrotation Yrotation Zrotation
				JOINT Spine1_split
				{
					OFFSET -0.002067 5.816869 0.032633
					CHANNELS 3 Xrotation Yrotation Zrotation
					JOINT Spine2
					{
						OFFSET -0.002067 5.816869 0.032633
						CHANNELS 3 Xrotation Yrotation Zrotation
						JOINT Neck_virtual
						{
							OFFSET 0.000000 0.000000 0.000000
							CHANNELS 3 Xrotation Yrotation Zrotation
							JOINT Neck
							{
								OFFSET -0.003700 21.199493 -0.826900
								CHANNELS 3 Xrotation Yrotation Zrotation
								JOINT Head
								{
									OFFSET 0.000000 20.442200 4.834800
									CHANNELS 3 Xrotation Yrotation Zrotation
									JOINT HeadTop_End
									{
										OFFSET 0.000000 34.668396 4.968400
										CHANNELS 3 Xrotation Yrotation Zrotation
										End Site
										{
											OFFSET 0 0 0
										}
									}
								}
							}
						}
						JOINT LeftShoulder_virtual
						{
							OFFSET 0.000000 0.000000 0.000000
							CHANNELS 3 Xrotation Yrotation Zrotation
							JOINT LeftShoulder
							{
								OFFSET 3.288150 8.794197 -1.372250
								CHANNELS 3 Xrotation Yrotation Zrotation
								JOINT LeftShoulder_split
								{
									OFFSET 3.288150 8.794197 -1.372250
									CHANNELS 3 Xrotation Yrotation Zrotation
									JOINT LeftArm
									{
										OFFSET 11.953299 -2.279007 -0.146200
										CHANNELS 3 Xrotation Yrotation Zrotation
										JOINT LeftForeArm
										{
											OFFSET 18.448900 0.000000 0.000000
											CHANNELS 3 Xrotation Yrotation Zrotation
											JOINT LeftHand
											{
												OFFSET 29.527798 0.000000 0.000000
												CHANNELS 3 Xrotation Yrotation Zrotation
												End Site
												{
													OFFSET 0 0 0
												}
											}
										}
									}
								}
							}
						}
						JOINT RightShoulder_virtual
						{
							OFFSET 0.000000 0.000000 0.000000
							CHANNELS 3 Xrotation Yrotation Zrotation
							JOINT RightShoulder
							{
								OFFSET -3.249400 8.794197 -1.372250
								CHANNELS 3 Xrotation Yrotation Zrotation
								JOINT RightShoulder_split
								{
									OFFSET -3.249400 8.794197 -1.372250
									CHANNELS 3 Xrotation Yrotation Zrotation
									JOINT RightArm
									{
										OFFSET -11.953299 -2.279007 -0.146200
										CHANNELS 3 Xrotation Yrotation Zrotation
										JOINT RightForeArm
										{
											OFFSET -18.448900 0.000000 0.000000
											CHANNELS 3 Xrotation Yrotation Zrotation
											JOINT RightHand
											{
												OFFSET -29.527802 0.000000 0.000000
												CHANNELS 3 Xrotation Yrotation Zrotation
												End Site
												{
													OFFSET 0 0 0
												}
											}
										}
									}
								}
							}
						}
					}
				}
			}
		}
	}
}
MOTION
Frames: 4
Frame Time: 0.03333333
-7.264096 91.845131 3.043327 0.000000 0.000000 0.000000 -19.487862 -66.362255 -19.604190 -38.236847 -0.436341 25.062105 42.555326 11.490402 -6.556017 4.378188 1.896531 -11.384820 1.703541 2.969384 1.200495 0.000000 0.000000 0.000000 -19.755076 -59.441135 -16.608086 -23.615229 -20.815529 -19.598453 37.646715 -12.003843 0.423320 -7.073651 -2.114628 11.794526 -9.011579 -7.666454 13.589538 0.000000 0.000000 0.000000 -28.408287 -62.553427 -23.984669 6.507201 13.054715 3.638913 3.157186 2.491112 1.494328 0.154664 3.945603 0.518933 0.000000 0.000000 0.000000 13.884111 5.513776 -2.003355 12.037702 7.255694 -2.978675 25.713091 44.138574 -14.459032 0.000000 0.000000 0.000000 14.167016 4.872655 -1.673816 9.969012 -11.153398 -6.675975 -2.093342 -14.909077 -4.542948 2.862876 -12.290634 -36.299194 -86.747425 8.006831 -79.526857 0.000000 0.000000 0.000000 14.331791 6.184891 0.000624 3.467715 5.855223 -10.592219 -1.416197 -3.206639 -11.436087 -10.953083 31.881605 41.380715 -67.104218 74.448898 55.818700 0.000000 0.000000 0.000000 
-7.290555 91.832375 4.726814 0.000000 0.000000 0.000000 -19.301034 -66.376420 -19.359174 -38.103177 0.544384 25.455709 42.830877 11.042273 -6.573604 3.516810 1.823839 -11.271444 1.108616 2.780022 2.016169 0.000000 0.000000 0.000000 -18.944100 -59.802042 -16.004202 -24.177905 -20.092393 -19.306423 38.372754 -11.909015 0.094163 -6.729326 -3.022393 11.644185 -8.256018 -7.832089 14.421547 0.000000 0.000000 0.000000 -26.689143 -62.653052 -22.766955 6.628567 12.906898 3.580161 3.654471 2.747904 1.580619 -0.037487 5.127044 0.405762 0.000000 0.000000 0.000000 13.983712 5.858952 -2.014213 11.761778 7.226034 -2.729293 25.092389 44.690549 -14.947031 0.000000 0.000000 0.000000 14.566871 5.222901 -1.781431 10.170832 -10.990564 -6.086646 -3.706024 -12.537821 -5.890907 1.463923 -10.415515 -37.274111 -86.599675 8.641484 -79.153157 0.000000 0.000000 0.000000 15.036914 6.623120 -0.074188 3.276442 7.754239 -11.003220 -2.092656 -1.915821 -11.201567 -10.597737 33.280568 42.018771 -69.603275 74.773359 58.185514 0.000000 0.000000 0.000000 
-6.923594 91.602585 6.587151 0.000000 0.000000 0.000000 -18.433750 -65.316443 -18.301304 -38.978165 2.142333 25.360060 43.918844 10.145100 -6.711040 1.116225 2.208031 -10.205038 0.174821 2.557518 3.061575 0.000000 0.000000 0.000000 -17.487555 -59.199572 -14.667577 -25.145145 -18.885080 -18.576836 39.514147 -11.167841 -0.510223 -6.191735 -4.258659 11.767264 -7.488599 -7.571633 14.494010 0.000000 0.000000 0.000000 -23.766772 -62.441528 -20.276465 6.943960 12.786652 3.931177 3.735690 3.852068 1.470657 -0.331368 5.850022 0.434594 0.000000 0.000000 0.000000 14.068546 6.971541 -2.202594 10.651004 7.558445 -2.902340 23.917111 45.638057 -16.171666 0.000000 0.000000 0.000000 14.518744 6.456198 -2.057571 10.239009 -11.002857 -5.096776 -4.449896 -10.519886 -6.717865 -1.454215 -7.605880 -39.275084 -87.126433 8.920765 -79.530559 0.000000 0.000000 0.000000 15.662530 7.869778 -0.432065 3.386700 10.562760 -10.921864 -2.640008 -2.022765 -12.184540 -8.875234 35.181027 41.944943 -71.896511 74.759863 60.317933 0.000000 0.000000 0.000000 
-6.379903 91.291740 8.240620 0.000000 0.000000 0.000000 -16.992148 -63.488220 -16.623815 -40.456307 3.913536 24.594948 45.498608 8.829810 -6.756532 -1.888996 2.801349 -8.563970 -0.776571 2.304948 3.975142 0.000000 0.000000 0.000000 -15.854059 -57.962809 -13.049066 -26.641375 -17.282390 -17.494749 41.026354 -9.755423 -1.361020 -5.422392 -5.475513 12.480245 -7.021075 -6.916313 13.664720 0.000000 0.000000 0.000000 -20.117074 -61.892579 -17.037109 7.222388 12.622167 4.586995 3.421261 5.479508 1.285890 -0.476913 5.606147 0.288232 0.000000 0.000000 0.000000 14.195257 8.577901 -2.468068 8.938523 8.290805 -3.217104 22.583974 46.644393 -17.920651 0.000000 0.000000 0.000000 14.253971 8.245508 -2.453772 10.232619 -11.402510 -3.814912 -4.166979 -9.065893 -7.259000 -5.656364 -4.982308 -41.941425 -87.543662 8.930952 -80.007067 0.000000 0.000000 0.000000 16.173922 9.626241 -0.995318 3.736116 13.636647 -10.365112 -3.228604 -3.859671 -13.097858 -6.611306 36.724868 41.545944 -74.840930 74.512603 63.079427 0.000000 0.000000 0.000000 
